Coordinates
version=1
nRows=17
nColumns=38
inDegrees=no

Units are S.I. units (second, meters, Newtons, ...)
If the header above contains a line with 'inDegrees', this indicates whether rotational values are in degrees (yes) or radians (no).

endheader
time	pelvis_tilt	pelvis_list	pelvis_rotation	pelvis_tx	pelvis_ty	pelvis_tz	hip_flexion_r	hip_adduction_r	hip_rotation_r	knee_angle_r	ankle_angle_r	subtalar_angle_r	mtp_angle_r	hip_flexion_l	hip_adduction_l	hip_rotation_l	knee_angle_l	ankle_angle_l	subtalar_angle_l	mtp_angle_l	lumbar_extension	lumbar_bending	lumbar_rotation	arm_flex_r	arm_add_r	arm_rot_r	elbow_flex_r	pro_sup_r	wrist_flex_r	wrist_dev_r	arm_flex_l	arm_add_l	arm_rot_l	elbow_flex_l	pro_sup_l	wrist_flex_l	wrist_dev_l
0	0.32432	1.43551	-1.74215	0.941115	1.87154	0.944253	0.309704	-0.226185	-0.250449	0.912901	0.0763927	0	0	-0.208165	0.0715448	-0.00361351	0.0439574	0.183054	0	0	-0.257745	-0.0804553	-0.260343	-0.241165	-0.176698	0.114113	0.607695	0.479624	0	0	-0.0111032	-0.486574	0.174901	0.844719	1.38785	0	0
0.01	0.315167	1.43731	-1.72887	0.942012	1.86356	0.943912	0.318094	-0.223065	-0.261243	0.871682	0.07418	0	0	-0.222185	0.068535	0.0078414	0.0317281	0.181782	0	0	-0.25544	-0.0778008	-0.263914	-0.237337	-0.17556	0.113645	0.611481	0.477179	0	0	-0.00373607	-0.480513	0.154266	0.843254	1.39186	0	0
0.02	0.310145	1.43851	-1.72003	0.942727	1.85539	0.94341	0.325199	-0.220088	-0.271919	0.829524	0.0724911	0	0	-0.235255	0.0662179	0.0145596	0.0231055	0.183442	0	0	-0.254166	-0.0763505	-0.267534	-0.233339	-0.17469	0.115947	0.615541	0.476559	0	0	-0.000612809	-0.485073	0.153058	0.854911	1.38718	0	0
0.03	0.26549	1.44843	-1.66823	0.94376	1.84753	0.941253	0.340744	-0.211425	-0.285815	0.788809	0.0733951	0	0	-0.231958	0.0594507	0.017618	0.023532	0.194726	0	0	-0.244976	-0.067248	-0.273681	-0.230196	-0.176723	0.120206	0.623113	0.476148	0	0	-0.00127527	-0.494863	0.162342	0.876075	1.3798	0	0
0.04	0.328045	1.43549	-1.73258	0.944771	1.83885	0.942391	0.332071	-0.219017	-0.293689	0.742527	0.076231	0	0	-0.255817	0.0777281	-0.0404443	0.0136212	0.191489	0	0	-0.257313	-0.0766498	-0.273012	-0.225086	-0.176729	0.123057	0.627217	0.475651	0	0	0.00664028	-0.490185	0.147031	0.877718	1.38496	0	0
0.05	0.325671	1.43589	-1.72804	0.945258	1.83082	0.941587	0.335872	-0.213715	-0.302782	0.696785	0.0832424	0	0	-0.269674	0.0763809	-0.0337639	0.00437529	0.191426	0	0	-0.258222	-0.0761319	-0.273752	-0.219973	-0.176134	0.125475	0.630123	0.475455	0	0	0.0109953	-0.497839	0.153912	0.893099	1.38113	0	0
0.06	0.346094	1.43775	-1.74081	0.94542	1.82273	0.940523	0.341985	-0.201076	-0.303483	0.651715	0.0849501	0	0	-0.280759	0.0712074	-0.0385685	0	0.196389	0	0	-0.256475	-0.0789824	-0.27464	-0.218354	-0.173634	0.125112	0.632005	0.474473	0	0	0.0227992	-0.497344	0.150589	0.895742	1.38048	0	0
0.07	0.344206	1.43905	-1.73844	0.945726	1.81467	0.939468	0.345087	-0.195189	-0.309211	0.603783	0.0926784	0	0	-0.291957	0.0702101	-0.0361748	0	0.196977	0	0	-0.25608	-0.0784182	-0.271199	-0.214823	-0.172986	0.124023	0.634678	0.476243	0	0	0.0314263	-0.50081	0.157155	0.903032	1.36925	0	0
0.08	0.327921	1.43996	-1.72692	0.946039	1.80685	0.938429	0.346332	-0.193411	-0.321405	0.554415	0.100954	0	0	-0.296494	0.0733781	-0.0271141	0	0.195125	0	0	-0.257075	-0.0754697	-0.264326	-0.209508	-0.171465	0.113204	0.635042	0.515956	0	0	0.0398719	-0.506704	0.177479	0.913613	1.28807	0	0
0.09	0.328086	1.44189	-1.72666	0.946112	1.79874	0.937135	0.348757	-0.185517	-0.327629	0.506014	0.100299	0	0	-0.303971	0.0724648	-0.0253455	0	0.19581	0	0	-0.25663	-0.0748452	-0.261199	-0.206665	-0.17245	0.117513	0.640442	0.503427	0	0	0.0479283	-0.506428	0.17445	0.918309	1.31195	0	0
0.1	0.325257	1.44388	-1.72403	0.946158	1.79047	0.935744	0.350243	-0.176889	-0.333155	0.457712	0.0976036	0	0	-0.311496	0.0715008	-0.0253958	0	0.1981	0	0	-0.256067	-0.0736712	-0.257503	-0.204219	-0.174199	0.12248	0.646342	0.493426	0	0	0.0555368	-0.505757	0.172578	0.921895	1.32904	0	0
0.11	0.320996	1.44594	-1.72058	0.946147	1.7821	0.934243	0.35179	-0.168209	-0.33776	0.41208	0.0965147	0	0	-0.31904	0.0705638	-0.0262734	0	0.201724	0	0	-0.25544	-0.0722633	-0.252957	-0.202255	-0.176323	0.127254	0.652835	0.484855	0	0	0.0634997	-0.50492	0.172866	0.92524	1.34083	0	0
0.12	0.315838	1.44816	-1.71623	0.946098	1.77364	0.932656	0.353253	-0.1595	-0.341031	0.369064	0.096955	0	0	-0.326411	0.069347	-0.0271562	0	0.206163	0	0	-0.254635	-0.070613	-0.248063	-0.200841	-0.17853	0.131301	0.659531	0.478148	0	0	0.0717532	-0.503867	0.174657	0.927365	1.34875	0	0
0.13	0.31112	1.45043	-1.71224	0.945992	1.76508	0.931021	0.354262	-0.150689	-0.342803	0.327852	0.0965944	0	0	-0.333663	0.0679544	-0.0283358	0	0.210451	0	0	-0.253777	-0.0689003	-0.243177	-0.199803	-0.180533	0.133632	0.66606	0.473281	0	0	0.0798478	-0.502737	0.176905	0.928967	1.35468	0	0
0.14	0.31792	1.45394	-1.71729	0.945911	1.75609	0.929186	0.355863	-0.141498	-0.339616	0.288529	0.0925963	0	0	-0.348059	0.0635516	-0.0347024	0	0.216416	0	0	-0.250841	-0.0684759	-0.239554	-0.200199	-0.181778	0.134357	0.671975	0.47011	0	0	0.0879582	-0.501413	0.179837	0.929255	1.3592	0	0
0.15	0.314809	1.45528	-1.71535	0.945772	1.74734	0.927614	0.353946	-0.133441	-0.337434	0.250041	0.0891276	0	0	-0.354595	0.0619848	-0.0362772	0	0.221431	0	0	-0.250981	-0.0667373	-0.234408	-0.199413	-0.183412	0.134333	0.677941	0.468156	0	0	0.0957211	-0.499554	0.18326	0.928974	1.36236	0	0
0.16	0.313389	1.45616	-1.71447	0.945648	1.73841	0.926107	0.350702	-0.126217	-0.334686	0.214406	0.0860663	0	0	-0.361153	0.0599549	-0.0374213	0	0.22768	0	0	-0.251492	-0.0650737	-0.230216	-0.198673	-0.184534	0.133037	0.683267	0.467051	0	0	0.102442	-0.497653	0.186777	0.92776	1.36432	0	0
